<svg id="vuesax_linear_convert-3d-cube" data-name="vuesax/linear/convert-3d-cube" xmlns="http://www.w3.org/2000/svg" width="13.872" height="13.872" viewBox="0 0 13.872 13.872">
  <g id="convert-3d-cube" transform="translate(0 0)">
    <g id="Group" transform="translate(1.156 1.156)">
      <path id="Vector" d="M4.046,0A4.043,4.043,0,0,1,0,4.046L.607,3.034" transform="translate(7.514 7.514)" fill="none" stroke="#6f6f6f" stroke-linecap="round" stroke-linejoin="round" stroke-width="1.5"/>
      <path id="Vector-2" data-name="Vector" d="M0,4.046A4.043,4.043,0,0,1,4.046,0L3.439,1.011" fill="none" stroke="#6f6f6f" stroke-linecap="round" stroke-linejoin="round" stroke-width="1.5"/>
    </g>
    <g id="Group-2" data-name="Group" transform="translate(7.716 1.156)">
      <g id="Group-3" data-name="Group" transform="translate(0.202 1.416)">
        <path id="Vector-3" data-name="Vector" d="M0,0,2.3,1.329,4.578.006" fill="none" stroke="#6f6f6f" stroke-linecap="round" stroke-linejoin="round" stroke-width="1.5"/>
        <path id="Vector-4" data-name="Vector" d="M0,2.358V0" transform="translate(2.3 1.324)" fill="none" stroke="#6f6f6f" stroke-linecap="round" stroke-linejoin="round" stroke-width="1.5"/>
      </g>
      <path id="Vector-5" data-name="Vector" d="M1.959.121.572.89A1.235,1.235,0,0,0,0,1.861V3.329A1.22,1.22,0,0,0,.572,4.3l1.387.769a1.224,1.224,0,0,0,1.081,0L4.427,4.3A1.235,1.235,0,0,0,5,3.329V1.861A1.22,1.22,0,0,0,4.427.89L3.04.121A1.264,1.264,0,0,0,1.959.121Z" transform="translate(0 0)" fill="none" stroke="#6f6f6f" stroke-linecap="round" stroke-linejoin="round" stroke-width="1.5"/>
    </g>
    <g id="Group-4" data-name="Group" transform="translate(1.156 7.514)">
      <g id="Group-5" data-name="Group" transform="translate(0.202 1.416)">
        <path id="Vector-6" data-name="Vector" d="M0,0,2.295,1.329,4.578.006" fill="none" stroke="#6f6f6f" stroke-linecap="round" stroke-linejoin="round" stroke-width="1.5"/>
        <path id="Vector-7" data-name="Vector" d="M0,2.358V0" transform="translate(2.295 1.324)" fill="none" stroke="#6f6f6f" stroke-linecap="round" stroke-linejoin="round" stroke-width="1.5"/>
      </g>
      <path id="Vector-8" data-name="Vector" d="M1.959.121.572.89A1.235,1.235,0,0,0,0,1.861V3.329A1.22,1.22,0,0,0,.572,4.3l1.387.769a1.224,1.224,0,0,0,1.081,0L4.427,4.3A1.235,1.235,0,0,0,5,3.329V1.861A1.22,1.22,0,0,0,4.427.89L3.04.121A1.264,1.264,0,0,0,1.959.121Z" transform="translate(0 0)" fill="none" stroke="#6f6f6f" stroke-linecap="round" stroke-linejoin="round" stroke-width="1.5"/>
    </g>
    <path id="Vector-9" data-name="Vector" d="M0,0H13.872V13.872H0Z" fill="none" opacity="0"/>
  </g>
</svg>
